<svg width="64" height="64" xmlns="http://www.w3.org/2000/svg">

 <g>
  <title>background</title>
  <rect fill="none" id="canvas_background" height="66" width="66" y="-1" x="-1"/>
 </g>
 <g>
  <title>Layer 1</title>
  <g stroke-width="0" id="SVGRepo_bgCarrier"/>
  <g stroke-linejoin="round" stroke-linecap="round" id="SVGRepo_tracerCarrier"/>
  <g stroke="null" id="SVGRepo_iconCarrier">
   <path stroke="null" id="svg_1" fill="#02a237" d="m16.534119,7.254591c-5.086821,0 -9.279528,4.192707 -9.279528,9.279528l0,30.93176c0,5.086821 4.192707,9.279528 9.279528,9.279528l30.93176,0c5.086821,0 9.279528,-4.192707 9.279528,-9.279528l0,-30.93176c0,-5.086821 -4.192707,-9.279528 -9.279528,-9.279528l-30.93176,0zm0,6.186352l30.93176,0c1.304949,0 2.368228,0.724979 2.839443,1.812416l-2.066149,2.34404l-19.477327,22.25636l-6.947583,-6.947552c-1.208256,-1.208287 -3.16568,-1.208287 -4.373937,0s-1.208287,3.177743 0,4.386031l9.279528,9.279528c1.268666,1.256603 3.334815,1.196193 4.518945,-0.157071l19.320256,-22.075131l0,23.126316c0,1.764069 -1.329107,3.093176 -3.093176,3.093176l-30.93176,0c-1.764069,0 -3.093176,-1.329107 -3.093176,-3.093176l0,-30.93176c0,-1.764069 1.329107,-3.093176 3.093176,-3.093176zm0,0"/>
  </g>
 </g>
</svg>